<svg width="512" height="512" viewBox="0 0 100 100" fill="none" xmlns="http://www.w3.org/2000/svg">
  <!-- Circular white background for a premium look -->
  <circle cx="50" cy="50" r="48" fill="white" stroke="#f3f4f6" stroke-width="0.5"/>
  
  <!-- Original Sushi de Maksim logo elements, perfectly centered in the circle -->
  <g transform="translate(13, 28) scale(0.9)">
    <!-- Chopstick 1 (Original Path 3) -->
    <path d="M37.3163 5.33308C37.4648 5.50107 37.4211 5.69374 37.1867 5.91109C34.971 7.96214 32.8773 9.8955 30.9055 11.7112C20.8073 21.0092 11.4036 29.645 2.69451 37.6186C2.53601 37.7638 2.33882 37.8784 2.10297 37.9624C1.58119 38.1489 1.20178 37.9731 0.855113 37.5816C0.508446 37.1894 0.381028 36.7914 0.62946 36.2967C0.741931 36.0727 0.879791 35.891 1.04304 35.7514C10.0208 28.0816 19.7407 19.8034 30.2029 10.9168C32.2459 9.18176 34.4208 7.33975 36.7276 5.39074C36.9715 5.18478 37.1678 5.16556 37.3163 5.33308Z" fill="black"/>
    <!-- Chopstick 2 (Original Path 4) -->
    <path d="M77.5695 12.1648C77.6532 12.2598 77.6957 12.3842 77.6877 12.5107C77.6797 12.6371 77.6218 12.7551 77.5268 12.8389L77.4834 12.8773C72.7532 17.0475 68.0518 21.157 63.6476 24.9712C59.2435 28.7853 55.2229 32.2293 51.8155 35.1065C48.4081 37.9837 45.6806 40.2378 43.7887 41.74C41.8968 43.2422 40.8776 43.9631 40.7894 43.8616L40.7744 43.8445C40.6841 43.7448 41.5266 42.8244 43.2538 41.136C44.981 39.4475 47.559 37.0241 50.8406 34.0041C54.1222 30.9841 58.0432 27.4267 62.3795 23.5351C66.7158 19.6435 71.3825 15.4939 76.1131 11.3234L76.1572 11.2849C76.2523 11.2012 76.3767 11.1587 76.5031 11.1667C76.6295 11.1747 76.7476 11.2326 76.8313 11.3276L77.5695 12.1648Z" fill="black"/>
    <!-- Sushi Roll Ring (Original Path 5) -->
    <path d="M52.2849 24.5949C52.2849 26.3357 51.9421 28.0594 51.2759 29.6677C50.6097 31.276 49.6333 32.7373 48.4024 33.9682C47.1714 35.1991 45.7101 36.1756 44.1018 36.8417C42.4936 37.5079 40.7698 37.8508 39.029 37.8508C35.5133 37.8508 32.1417 36.4542 29.6557 33.9682C27.1697 31.4823 25.7731 28.1106 25.7731 24.5949C25.7731 21.0792 27.1697 17.7075 29.6557 15.2216C32.1417 12.7356 35.5133 11.339 39.029 11.339C42.5447 11.339 45.9164 12.7356 48.4024 15.2216C50.8883 17.7075 52.2849 21.0792 52.2849 24.5949ZM50.8306 24.5949C50.8306 21.4638 49.5868 18.4609 47.3728 16.2469C45.1587 14.0328 42.1559 12.789 39.0248 12.789C35.8936 12.789 32.8908 14.0328 30.6767 16.2469C28.4627 18.4609 27.2189 21.4638 27.2189 24.5949C27.2189 27.726 28.4627 30.7289 30.6767 32.9429C32.8908 35.1569 35.8936 36.4008 39.0248 36.4008C42.1559 36.4008 45.1587 35.1569 47.3728 32.9429C49.5868 30.7289 50.8306 27.726 50.8306 24.5949Z" fill="black"/>
    <!-- Sushi Roll Orange Center (Original Path 17) -->
    <path d="M39.0255 32.8843C43.5863 32.8843 47.2835 29.1871 47.2835 24.6263C47.2835 20.0655 43.5863 16.3682 39.0255 16.3682C34.4647 16.3682 30.7674 20.0655 30.7674 24.6263C30.7674 29.1871 34.4647 32.8843 39.0255 32.8843Z" fill="#F18052"/>
  </g>
</svg>
