<svg width="159" height="50" viewBox="0 0 159 50" fill="none" xmlns="http://www.w3.org/2000/svg">
<g clip-path="url(#clip0_1816_105147)">
<path d="M37.3163 5.33308C37.4648 5.50107 37.4216 5.69374 37.1867 5.91109C34.971 7.96214 32.8773 9.8955 30.9055 11.7112C20.8073 21.0092 11.4036 29.645 2.69451 37.6186C2.53601 37.7638 2.33882 37.8784 2.10297 37.9624C1.58119 38.1489 1.20178 37.9731 0.855113 37.5816C0.508446 37.1894 0.381028 36.7914 0.62946 36.2967C0.741931 36.0727 0.879791 35.891 1.04304 35.7514C10.0208 28.0816 19.7407 19.8034 30.2029 10.9168C32.2459 9.18176 34.4208 7.33975 36.7276 5.39074C36.9715 5.18478 37.1678 5.16556 37.3163 5.33308Z" fill="black"/>
<path d="M77.5695 12.1648C77.6532 12.2598 77.6957 12.3842 77.6877 12.5107C77.6797 12.6371 77.6218 12.7551 77.5268 12.8389L77.4834 12.8773C72.7532 17.0475 68.0518 21.157 63.6476 24.9712C59.2435 28.7853 55.2229 32.2293 51.8155 35.1065C48.4081 37.9837 45.6806 40.2378 43.7887 41.74C41.8968 43.2422 40.8776 43.9631 40.7894 43.8616L40.7744 43.8445C40.6841 43.7448 41.5266 42.8244 43.2538 41.136C44.981 39.4475 47.559 37.0241 50.8406 34.0041C54.1222 30.9841 58.0432 27.4267 62.3795 23.5351C66.7158 19.6435 71.3825 15.4939 76.1131 11.3234L76.1572 11.2849C76.2523 11.2012 76.3767 11.1587 76.5031 11.1667C76.6295 11.1747 76.7476 11.2326 76.8313 11.3276L77.5695 12.1648Z" fill="black"/>
<path d="M52.2849 24.5949C52.2849 26.3357 51.9421 28.0594 51.2759 29.6677C50.6097 31.276 49.6333 32.7373 48.4024 33.9682C47.1714 35.1991 45.7101 36.1756 44.1018 36.8417C42.4936 37.5079 40.7698 37.8508 39.029 37.8508C35.5133 37.8508 32.1417 36.4542 29.6557 33.9682C27.1697 31.4823 25.7731 28.1106 25.7731 24.5949C25.7731 21.0792 27.1697 17.7075 29.6557 15.2216C32.1417 12.7356 35.5133 11.339 39.029 11.339C42.5447 11.339 45.9164 12.7356 48.4024 15.2216C50.8883 17.7075 52.2849 21.0792 52.2849 24.5949ZM50.8306 24.5949C50.8306 21.4638 49.5868 18.4609 47.3728 16.2469C45.1587 14.0328 42.1559 12.789 39.0248 12.789C35.8936 12.789 32.8908 14.0328 30.6767 16.2469C28.4627 18.4609 27.2189 21.4638 27.2189 24.5949C27.2189 27.726 28.4627 30.7289 30.6767 32.9429C32.8908 35.1569 35.8936 36.4008 39.0248 36.4008C42.1559 36.4008 45.1587 35.1569 47.3728 32.9429C49.5868 30.7289 50.8306 27.726 50.8306 24.5949Z" fill="black"/>
<path d="M94.7633 14.9775C94.7518 14.9734 94.7417 14.9664 94.7338 14.9571C94.7259 14.9478 94.7206 14.9365 94.7184 14.9245C94.6876 14.7555 94.6622 14.6311 94.6423 14.5514C94.4345 13.7348 93.8787 13.1641 93.1036 12.8295C92.5 12.5689 91.8565 12.4513 91.173 12.4767C90.2074 12.5119 89.2231 12.9438 88.7758 13.8192C88.5395 14.2823 88.448 14.7804 88.501 15.3135C88.6008 16.3186 89.3537 16.9414 90.2918 17.3068C90.7044 17.4675 91.2009 17.6378 91.7813 17.8178C92.7608 18.1218 93.5744 18.3652 94.2219 18.5481C95.0573 18.7843 95.8792 19.1482 96.556 19.6703C97.6676 20.5267 98.2433 21.663 98.2832 23.0793C98.297 23.5716 98.2562 24.045 98.1607 24.4994C97.8901 25.7868 97.2209 26.8205 96.153 27.6004C95.3624 28.1779 94.3868 28.5577 93.4294 28.7342C91.7037 29.0523 89.8064 28.8489 88.2156 28.0709C87.6415 27.7899 87.0288 27.357 86.5887 26.8725C85.8415 26.0495 85.4238 25.0581 85.3354 23.8983C85.3257 23.773 85.3257 23.6764 85.3354 23.6086C85.3382 23.5886 85.3481 23.5702 85.3633 23.5569C85.3786 23.5436 85.3981 23.5363 85.4183 23.5363H88.5048C88.5276 23.5363 88.5495 23.5446 88.5666 23.5596C88.5837 23.5745 88.5948 23.5952 88.5979 23.6177C88.6274 23.8353 88.662 24.0169 88.7015 24.1624C88.9806 25.1969 89.6955 25.853 90.7102 26.1523C91.5726 26.4073 92.5145 26.3452 93.401 26.0709C94.1077 25.852 94.7261 25.3613 94.9937 24.6609C95.308 23.8395 95.321 22.9303 94.7825 22.2049C94.4229 21.7194 93.8932 21.4148 93.3417 21.1742C92.5632 20.8349 91.7085 20.6416 90.8837 20.4208C90.6308 20.353 90.3083 20.2558 89.9163 20.1292C88.5183 19.6775 87.052 19.2403 86.1761 17.9489C85.4424 16.8672 85.2804 15.7049 85.4516 14.414C85.5419 13.7324 85.753 13.1006 86.085 12.5186C86.5603 11.6861 87.3855 11.006 88.2855 10.6063C89.3316 10.1416 90.4118 9.9011 91.5263 9.88472C92.5344 9.86961 93.5136 10.0178 94.4639 10.3292C95.1156 10.5432 95.7567 10.8753 96.2875 11.3178C97.3075 12.1682 97.8956 13.3738 98.0961 14.684C98.127 14.8851 98.045 14.9861 97.8503 14.9867C97.1513 14.988 96.1425 14.9875 94.824 14.9852C94.7983 14.9852 94.778 14.9827 94.7633 14.9775Z" fill="black"/>
<path d="M129.277 14.9775C129.265 14.9734 129.255 14.9664 129.247 14.9571C129.24 14.9478 129.234 14.9365 129.232 14.9245C129.201 14.7555 129.176 14.6311 129.156 14.5514C128.948 13.7353 128.392 13.1646 127.617 12.8305C127.013 12.5702 126.37 12.4529 125.686 12.4786C124.721 12.5143 123.737 12.9462 123.29 13.8216C123.054 14.285 122.962 14.7831 123.016 15.3159C123.116 16.321 123.869 16.9433 124.807 17.3082C125.219 17.4686 125.716 17.6388 126.296 17.8187C127.276 18.1221 128.089 18.365 128.737 18.5476C129.572 18.7833 130.394 19.1472 131.071 19.6688C132.183 20.5246 132.759 21.6605 132.8 23.0764C132.813 23.5687 132.773 24.0421 132.678 24.4965C132.408 25.7839 131.739 26.8177 130.671 27.598C129.881 28.1755 128.906 28.5558 127.949 28.7327C126.224 29.0514 124.327 28.8489 122.735 28.0719C122.161 27.7908 121.549 27.3584 121.109 26.874C120.361 26.0516 119.943 25.0605 119.854 23.9007C119.844 23.7754 119.844 23.6788 119.854 23.611C119.857 23.591 119.866 23.5726 119.882 23.5594C119.897 23.5461 119.916 23.5387 119.937 23.5387L123.023 23.5377C123.045 23.5378 123.067 23.546 123.085 23.561C123.102 23.576 123.113 23.5967 123.116 23.6192C123.146 23.8364 123.18 24.0178 123.22 24.1634C123.499 25.1979 124.214 25.8535 125.229 26.1523C126.091 26.4069 127.033 26.3442 127.919 26.0699C128.626 25.8506 129.244 25.3599 129.511 24.6594C129.825 23.838 129.838 22.9289 129.299 22.2039C128.939 21.7185 128.41 21.4143 127.858 21.1738C127.08 20.8349 126.225 20.6421 125.4 20.4218C125.147 20.354 124.825 20.2569 124.433 20.1306C123.035 19.6794 121.568 19.2427 120.692 17.9518C119.958 16.8705 119.796 15.7088 119.966 14.4179C120.056 13.7363 120.267 13.1045 120.599 12.5225C121.074 11.69 121.899 11.0098 122.798 10.6097C123.844 10.1447 124.924 9.90368 126.038 9.88665C127.046 9.87123 128.025 10.0191 128.976 10.3301C129.627 10.5437 130.268 10.8753 130.799 11.3178C131.82 12.1677 132.408 13.3728 132.609 14.6825C132.64 14.8837 132.558 14.9846 132.363 14.9853C131.664 14.9869 130.656 14.9869 129.338 14.9853C129.312 14.9853 129.292 14.9827 129.277 14.9775Z" fill="black"/>
<path d="M158.376 9.99655H155.096C155.027 9.99655 154.971 10.0522 154.971 10.1209V28.6894C154.971 28.758 155.027 28.8137 155.096 28.8137H158.376C158.444 28.8137 158.5 28.758 158.5 28.6894V10.1209C158.5 10.0522 158.444 9.99655 158.376 9.99655Z" fill="black"/>
<path d="M143.819 18.1639C146.222 18.1639 147.575 18.1618 147.876 18.1576C147.96 18.1563 148.042 18.1523 148.121 18.1456C148.134 18.1444 148.146 18.1384 148.154 18.1289C148.163 18.1193 148.168 18.1069 148.168 18.094V10.1744C148.168 10.1657 148.17 10.1571 148.173 10.149C148.176 10.1409 148.181 10.1336 148.187 10.1274C148.193 10.1212 148.201 10.1163 148.209 10.113C148.217 10.1096 148.225 10.1079 148.234 10.1079H151.144C151.158 10.108 151.172 10.1134 151.182 10.1231C151.193 10.1328 151.2 10.1461 151.201 10.1605C151.211 10.2511 151.217 10.3551 151.218 10.4724C151.232 12.6448 151.238 15.6158 151.238 19.3854C151.238 23.155 151.231 26.1262 151.217 28.2989C151.216 28.4162 151.21 28.5202 151.2 28.6108C151.199 28.6252 151.192 28.6385 151.181 28.6482C151.171 28.6579 151.157 28.6633 151.143 28.6633L148.233 28.6629C148.215 28.6629 148.199 28.6559 148.186 28.6434C148.174 28.6309 148.167 28.614 148.167 28.5963L148.168 20.6768C148.168 20.6639 148.163 20.6515 148.154 20.6419C148.146 20.6324 148.134 20.6264 148.121 20.6252C148.042 20.6185 147.96 20.6145 147.876 20.6132C147.575 20.609 146.222 20.6067 143.819 20.6064C141.416 20.6064 140.064 20.6085 139.763 20.6127C139.679 20.614 139.597 20.618 139.518 20.6247C139.505 20.6259 139.493 20.6319 139.484 20.6414C139.476 20.651 139.471 20.6634 139.471 20.6763V28.5959C139.471 28.6135 139.464 28.6304 139.451 28.6429C139.439 28.6554 139.422 28.6624 139.405 28.6624H136.495C136.481 28.6623 136.467 28.6569 136.456 28.6472C136.446 28.6376 136.439 28.6242 136.437 28.6098C136.427 28.5192 136.422 28.4153 136.421 28.298C136.407 26.1255 136.4 23.1545 136.401 19.3849C136.401 15.615 136.408 12.6438 136.422 10.4714C136.423 10.3541 136.428 10.2501 136.438 10.1595C136.44 10.1451 136.446 10.1318 136.457 10.1221C136.468 10.1124 136.482 10.107 136.496 10.107L139.406 10.1074C139.423 10.1074 139.44 10.1145 139.452 10.1269C139.465 10.1394 139.472 10.1563 139.472 10.174L139.471 18.0935C139.471 18.1064 139.476 18.1188 139.484 18.1284C139.493 18.1379 139.505 18.1439 139.518 18.1451C139.597 18.1518 139.679 18.1559 139.763 18.1571C140.064 18.1613 141.416 18.1636 143.819 18.1639Z" fill="black"/>
<path d="M109.112 26.1702C109.646 26.1702 110.156 26.1152 110.685 25.9745C111.659 25.7151 112.466 25.0605 112.88 24.1909C113.033 23.8679 113.139 23.4367 113.198 22.8971C113.272 22.2116 113.291 21.5136 113.292 20.8417C113.293 15.1876 113.294 11.6675 113.293 10.2815C113.293 10.1876 113.334 10.1386 113.418 10.1344C113.511 10.1299 113.579 10.1277 113.624 10.1277C114.598 10.1238 115.463 10.1245 116.221 10.1296C116.241 10.1297 116.261 10.1363 116.277 10.1483C116.294 10.1603 116.306 10.1772 116.312 10.1966C116.328 10.2445 116.336 10.3088 116.335 10.3894C116.333 11.0595 116.332 14.9197 116.332 21.9701C116.332 22.4101 116.286 22.9461 116.195 23.5782C116.121 24.0821 115.96 24.601 115.71 25.1348C115.236 26.1456 114.488 27.035 113.549 27.6496C112.218 28.5211 110.699 28.873 109.112 28.873C107.525 28.8725 106.006 28.5211 104.675 27.6496C103.736 27.0345 102.987 26.1451 102.514 25.1343C102.264 24.6005 102.103 24.0816 102.03 23.5777C101.938 22.9456 101.892 22.4096 101.892 21.9696C101.892 14.9192 101.892 11.059 101.89 10.389C101.89 10.3083 101.897 10.244 101.913 10.1961C101.919 10.1768 101.931 10.1599 101.948 10.1478C101.964 10.1358 101.984 10.1293 102.005 10.1291C102.762 10.124 103.627 10.1233 104.601 10.1272C104.646 10.1272 104.714 10.1295 104.807 10.134C104.891 10.1381 104.933 10.1871 104.933 10.281C104.932 11.667 104.932 15.1871 104.933 20.8412C104.933 21.5131 104.952 22.2111 105.027 22.8966C105.085 23.4362 105.191 23.8675 105.345 24.1904C105.758 25.06 106.565 25.7151 107.539 25.9745C108.067 26.1152 108.577 26.1702 109.112 26.1702Z" fill="black"/>
<path d="M144.297 33.5392H142.711C142.668 33.5392 142.634 33.5735 142.634 33.6159V44.6142C142.634 44.6566 142.668 44.6909 142.711 44.6909H144.297C144.34 44.6909 144.374 44.6566 144.374 44.6142V33.6159C144.374 33.5735 144.34 33.5392 144.297 33.5392Z" fill="black"/>
<path d="M132.636 41.7808C132.952 41.6901 133.292 41.6792 133.654 41.748C133.901 41.7952 133.913 42.0314 134.001 42.2146C134.142 42.5083 134.289 42.744 134.442 42.9218C134.876 43.4263 135.437 43.6782 136.123 43.6776C136.396 43.6773 136.649 43.6525 136.881 43.6034C137.547 43.4631 138.028 43.2799 138.36 42.6706C138.437 42.5295 138.499 42.3218 138.546 42.0473C138.656 41.397 138.438 40.767 137.876 40.4156C137.13 39.9495 136.502 39.8265 135.415 39.5253C134.871 39.3744 134.338 39.1536 133.834 38.835C133.076 38.3563 132.66 37.6202 132.672 36.712C132.681 36.0224 132.859 35.4259 133.206 34.9227C133.836 34.0106 135.011 33.6048 136.112 33.5903C136.696 33.5829 137.247 33.6708 137.763 33.854C137.888 33.8983 138.06 33.9742 138.281 34.0815C139.056 34.458 139.563 35.2268 139.744 36.0034C139.77 36.1133 139.782 36.2007 139.78 36.2657C139.779 36.2943 139.771 36.3221 139.755 36.3462C139.74 36.3702 139.718 36.3895 139.692 36.4021C139.617 36.4387 139.532 36.4575 139.438 36.4585C139.083 36.463 138.842 36.4609 138.716 36.4522C138.545 36.4406 138.434 36.3534 138.382 36.1905C138.273 35.8524 138.087 35.5569 137.824 35.304C137.165 34.6725 135.993 34.6065 135.176 34.8851C134.542 35.1014 134.151 35.5362 134.003 36.1895C133.837 36.9203 134.189 37.6467 134.831 38.0126C135.248 38.2498 135.781 38.3732 136.094 38.4792C136.755 38.7029 137.445 38.8957 138.054 39.1049C138.992 39.4269 139.632 40.0984 139.798 41.0885C139.938 41.921 139.824 42.7632 139.322 43.4607C138.852 44.1129 138.031 44.5472 137.249 44.6918C136.232 44.8798 135.251 44.7675 134.306 44.3549C134.083 44.2575 133.851 44.114 133.611 43.9244C132.991 43.4347 132.624 42.6373 132.58 41.8584C132.579 41.8411 132.584 41.824 132.594 41.8099C132.604 41.7958 132.619 41.7855 132.636 41.7808Z" fill="black"/>
<path d="M125.467 39.2076C125.467 39.2683 125.547 39.3609 125.596 39.4144C125.969 39.8208 126.166 40.0522 126.571 40.4643C127.031 40.9319 127.318 41.277 127.802 41.7678C128.184 42.1544 128.537 42.5776 128.9 42.9343C129.327 43.3547 129.858 43.9746 130.295 44.4046C130.359 44.4672 130.391 44.5317 130.393 44.5979C130.394 44.61 130.392 44.6221 130.387 44.6335C130.383 44.6449 130.377 44.6553 130.368 44.6642C130.36 44.673 130.35 44.6802 130.339 44.6852C130.328 44.6902 130.316 44.6929 130.304 44.6933C129.921 44.7045 129.573 44.7084 129.259 44.7049C128.91 44.701 128.714 44.5612 128.472 44.3024C128.233 44.0449 128.063 43.8314 127.835 43.6015C127.623 43.3871 127.425 43.174 127.241 42.9623C126.968 42.6485 126.706 42.4108 126.447 42.1105C126.143 41.7567 125.724 41.345 125.504 41.0934C125.218 40.7662 124.872 40.4015 124.467 39.9991C124.465 39.9965 124.462 39.9945 124.458 39.9933C124.454 39.992 124.451 39.9916 124.447 39.9919C124.443 39.9923 124.44 39.9935 124.436 39.9954C124.433 39.9973 124.43 39.9999 124.428 40.003C124.397 40.0493 124.381 40.1039 124.381 40.1669C124.387 42.7407 124.389 44.1825 124.386 44.4923C124.385 44.6247 124.308 44.6936 124.156 44.6991C124.062 44.7023 123.837 44.7041 123.482 44.7044C123.358 44.7044 123.26 44.6962 123.187 44.6798C123.166 44.6749 123.147 44.6627 123.133 44.6455C123.119 44.6282 123.112 44.6068 123.112 44.5848C123.117 44.1966 123.118 42.9491 123.117 40.8422C123.116 40.3084 123.116 39.7649 123.115 39.2115C123.114 38.6584 123.113 38.1148 123.111 37.5807C123.106 35.4742 123.101 34.2268 123.095 33.8386C123.095 33.8165 123.102 33.795 123.116 33.7776C123.129 33.7603 123.148 33.7481 123.17 33.7431C123.242 33.7264 123.341 33.7179 123.464 33.7176C123.819 33.7169 124.044 33.7181 124.139 33.721C124.291 33.7258 124.368 33.7944 124.37 33.9268C124.373 34.2366 124.376 35.6784 124.378 38.2522C124.378 38.3152 124.394 38.3698 124.426 38.4161C124.428 38.4192 124.431 38.4218 124.434 38.4237C124.437 38.4256 124.441 38.4268 124.445 38.4272C124.448 38.4275 124.452 38.4271 124.456 38.4258C124.459 38.4246 124.462 38.4226 124.465 38.4199C124.869 38.0163 125.213 37.6504 125.498 37.3223C125.717 37.0697 126.134 36.6566 126.438 36.3018C126.696 36.001 126.957 35.7624 127.229 35.4476C127.412 35.2352 127.61 35.0215 127.822 34.8065C128.049 34.5761 128.217 34.3621 128.456 34.1037C128.697 33.8439 128.893 33.7036 129.242 33.6988C129.556 33.6943 129.904 33.697 130.286 33.707C130.311 33.7077 130.334 33.7181 130.351 33.7359C130.367 33.7537 130.377 33.7775 130.376 33.8019C130.374 33.8681 130.342 33.9327 130.279 33.9957C129.842 34.4272 129.314 35.0485 128.888 35.4703C128.526 35.8285 128.174 36.2527 127.794 36.6402C127.311 37.1329 127.026 37.479 126.567 37.948C126.163 38.3611 125.967 38.5935 125.595 39.0008C125.546 39.0548 125.467 39.1474 125.467 39.2076Z" fill="black"/>
<path d="M103.141 44.7208C102.975 44.7208 102.852 44.7033 102.77 44.6682C102.637 44.6118 102.568 44.4306 102.492 44.2768C102.382 44.0526 102.298 43.8116 102.196 43.6106C102.137 43.492 102.075 43.3529 102.011 43.1932C101.954 43.0498 101.893 42.9099 101.829 42.7733C101.683 42.4635 101.061 41.0749 99.9646 38.6075C99.8187 38.2797 99.6636 37.9307 99.4994 37.5604C99.3535 37.2323 99.251 37.0164 99.1918 36.9126C99.1866 36.9034 99.1788 36.8959 99.1694 36.891C99.1601 36.8861 99.1495 36.8839 99.1389 36.8849C99.1284 36.8858 99.1183 36.8897 99.1099 36.8961C99.1015 36.9026 99.0952 36.9113 99.0916 36.9213C99.0652 36.9958 99.052 37.0736 99.052 37.1546C99.0492 39.7637 99.0517 42.2255 99.0598 44.54C99.0601 44.6451 99.0019 44.6978 98.8853 44.6981C98.4104 44.6991 98.1526 44.7208 97.8725 44.6779C97.8647 44.6767 97.8573 44.6735 97.8512 44.6686C97.845 44.6636 97.8402 44.6572 97.8373 44.6499C97.8196 44.6075 97.8106 44.5514 97.8103 44.4817C97.7942 41.259 97.7883 37.8089 97.7925 34.1312C97.7928 34.0148 97.8122 33.9359 97.8508 33.8945C97.8627 33.8813 97.8785 33.872 97.8961 33.868C98.1887 33.801 98.4702 33.8053 98.7696 33.8333C98.9209 33.8472 99.0921 33.8766 99.1634 34.0184C99.2466 34.1839 99.3591 34.4257 99.5008 34.7438C101.303 38.7918 102.452 41.3705 102.949 42.4802C102.982 42.5551 103.03 42.6478 103.091 42.7584C103.106 42.7844 103.122 42.7974 103.14 42.7974C103.158 42.7974 103.175 42.7844 103.189 42.7584C103.25 42.6478 103.297 42.5549 103.331 42.4797C103.826 41.3694 104.971 38.7892 106.768 34.739C106.909 34.4206 107.021 34.1786 107.105 34.0131C107.175 33.8713 107.347 33.8415 107.498 33.8275C107.797 33.799 108.079 33.7942 108.371 33.8607C108.389 33.8648 108.405 33.8741 108.417 33.8873C108.456 33.9287 108.475 34.0076 108.476 34.1239C108.485 37.8016 108.484 41.2518 108.472 44.4744C108.472 44.5442 108.463 44.6003 108.445 44.6427C108.442 44.65 108.437 44.6564 108.431 44.6613C108.425 44.6662 108.418 44.6694 108.41 44.6706C108.13 44.714 107.872 44.6928 107.397 44.6923C107.281 44.692 107.222 44.6393 107.222 44.5342C107.227 42.2197 107.227 39.7579 107.22 37.1488C107.22 37.0678 107.207 36.9902 107.18 36.916C107.177 36.906 107.17 36.8973 107.162 36.8908C107.154 36.8844 107.144 36.8805 107.133 36.8796C107.122 36.8786 107.112 36.8808 107.102 36.8857C107.093 36.8906 107.085 36.8981 107.08 36.9073C107.021 37.0111 106.919 37.2272 106.773 37.5556C106.61 37.9258 106.455 38.275 106.31 38.6031C105.216 41.0722 104.596 42.4616 104.45 42.7714C104.387 42.9083 104.326 43.0484 104.269 43.1917C104.206 43.3514 104.144 43.4906 104.085 43.6092C103.983 43.8107 103.9 44.0517 103.79 44.2758C103.714 44.4296 103.645 44.6113 103.513 44.6677C103.431 44.7031 103.307 44.7208 103.141 44.7208Z" fill="black"/>
<path d="M115.768 33.8154C115.91 33.8154 116.072 33.8346 116.253 33.8728C116.506 33.9258 116.539 34.0897 116.632 34.3409C119.068 40.96 120.304 44.3212 120.341 44.4243C120.383 44.5415 120.436 44.6865 120.24 44.688C119.919 44.6902 119.598 44.6902 119.278 44.688C119.136 44.687 119.041 44.6178 118.992 44.4802C118.883 44.1778 118.626 43.467 118.219 42.3477C118.163 42.1948 118.131 42.1221 117.952 42.1172C117.391 42.1018 116.857 42.0984 115.763 42.098C114.669 42.0975 114.135 42.0999 113.575 42.1143C113.395 42.1192 113.363 42.192 113.307 42.3448C112.899 43.4638 112.64 44.1743 112.531 44.4764C112.482 44.6139 112.386 44.683 112.245 44.6837C111.925 44.6856 111.604 44.6853 111.283 44.6827C111.087 44.6812 111.14 44.5361 111.182 44.419C111.219 44.3159 112.459 40.9561 114.903 34.3399C114.996 34.0888 115.029 33.9249 115.283 33.8718C115.464 33.8339 115.626 33.8151 115.768 33.8154ZM113.851 40.8345C113.843 40.8559 113.84 40.8789 113.843 40.9015C113.846 40.9241 113.855 40.9457 113.868 40.9644C113.881 40.9831 113.898 40.9983 113.918 41.0089C113.939 41.0194 113.961 41.0249 113.984 41.0249L117.527 41.0312C117.55 41.0312 117.573 41.0258 117.593 41.0153C117.613 41.0048 117.631 40.9896 117.644 40.971C117.657 40.9523 117.665 40.9308 117.668 40.9082C117.671 40.8857 117.669 40.8627 117.661 40.8413L115.898 35.9634C115.888 35.936 115.87 35.9123 115.846 35.8955C115.822 35.8787 115.794 35.8697 115.765 35.8696C115.735 35.8696 115.707 35.8785 115.683 35.8952C115.659 35.9119 115.641 35.9356 115.631 35.963L113.851 40.8345Z" fill="black"/>
<path d="M148.916 36.8827C148.912 36.8788 148.907 36.8762 148.901 36.875C148.895 36.8738 148.889 36.8741 148.884 36.8759C148.879 36.8777 148.874 36.881 148.87 36.8853C148.866 36.8896 148.864 36.8949 148.862 36.9005C148.84 37.014 148.829 37.1138 148.829 37.1999C148.828 39.0503 148.828 41.5015 148.829 44.5535C148.829 44.6146 148.791 44.6612 148.714 44.6933C148.699 44.6994 148.683 44.7026 148.666 44.703C148.152 44.7084 147.856 44.7065 147.779 44.6972C147.708 44.6888 147.645 44.6499 147.59 44.5805C147.579 44.5667 147.573 44.5498 147.574 44.5323V33.9466C147.573 33.9207 147.583 33.8959 147.601 33.8771C147.619 33.8584 147.643 33.8472 147.669 33.8458C147.892 33.8336 148.246 33.8306 148.73 33.8367C148.815 33.8376 148.881 33.8735 148.928 33.9442C149.016 34.0782 149.05 34.2213 149.129 34.3862C149.182 34.4977 149.283 34.7212 149.433 35.0567C150.241 36.8686 150.668 37.8262 150.716 37.9297C150.819 38.1569 150.982 38.5262 151.204 39.0375C151.316 39.2958 151.403 39.4933 151.465 39.6299C151.8 40.3726 152.086 41.0052 152.323 41.5277C152.509 41.9389 152.675 42.3496 152.886 42.7261C152.89 42.7327 152.895 42.7385 152.901 42.743C152.907 42.7476 152.914 42.7507 152.922 42.7523C152.929 42.7539 152.937 42.7539 152.945 42.7523C152.952 42.7507 152.959 42.7475 152.965 42.743C153.089 42.6523 153.173 42.3877 153.313 42.0787C153.384 41.9222 153.446 41.7761 153.499 41.6405C153.574 41.4501 153.66 41.3012 153.762 41.0635C153.901 40.7383 154.053 40.3931 154.217 40.0281C154.257 39.9403 154.813 38.6889 155.885 36.2739C155.99 36.0391 156.093 35.8564 156.164 35.6492C156.235 35.4395 156.38 35.2042 156.459 34.9887C156.539 34.7723 156.676 34.5525 156.733 34.3848C156.843 34.0632 157.021 33.8208 157.393 33.815C157.562 33.8124 157.744 33.8208 157.941 33.84C158.157 33.8612 158.295 33.8424 158.295 34.1056C158.293 39.1568 158.293 42.479 158.295 44.072C158.295 44.1764 158.293 44.2696 158.29 44.3515C158.281 44.5632 158.315 44.6803 158.068 44.6962C157.833 44.711 157.544 44.7118 157.2 44.6986C157.05 44.6925 156.975 44.6122 156.977 44.4576C156.983 43.7197 156.984 41.3498 156.979 37.3479C156.978 37.1801 156.976 37.0595 156.971 36.9859C156.97 36.9771 156.968 36.9686 156.963 36.9612C156.958 36.9538 156.952 36.9477 156.944 36.9435C156.936 36.9392 156.927 36.937 156.919 36.937C156.91 36.937 156.901 36.9392 156.893 36.9435C156.869 36.9566 156.85 36.9778 156.836 37.0071C156.659 37.3718 156.508 37.7033 156.381 38.0015C156.313 38.1619 156.264 38.2725 156.232 38.3332C156.112 38.5651 156.021 38.8528 155.911 39.0519C155.819 39.2182 155.756 39.4053 155.682 39.5711C155.461 40.0599 155.304 40.4047 155.212 40.6056C155.129 40.783 155.057 40.9897 154.95 41.1956C154.848 41.3913 154.782 41.6126 154.69 41.7895C154.63 41.9074 154.576 42.0218 154.53 42.1327C154.33 42.6104 154.028 43.2443 153.781 43.8242C153.661 44.1051 153.562 44.3106 153.483 44.4407C153.214 44.8871 152.567 44.8659 152.35 44.3809C152.233 44.1216 152.165 43.9706 152.146 43.9278C152.104 43.8337 151.668 42.859 150.836 41.0037C150.773 40.861 150.731 40.7715 150.713 40.7352C150.702 40.7127 150.645 40.585 150.543 40.352C150.47 40.1859 150.413 40.058 150.373 39.9683C150.234 39.6617 149.839 38.7788 149.189 37.3194C149.113 37.1493 149.055 37.0066 148.916 36.8827Z" fill="black"/>
<path d="M39.0255 32.8843C43.5863 32.8843 47.2835 29.1871 47.2835 24.6263C47.2835 20.0655 43.5863 16.3682 39.0255 16.3682C34.4647 16.3682 30.7674 20.0655 30.7674 24.6263C30.7674 29.1871 34.4647 32.8843 39.0255 32.8843Z" fill="#F18052"/>
<path d="M84.8755 34.0864C84.8746 33.9921 84.9112 33.9013 84.9771 33.834C85.0431 33.7667 85.1331 33.7283 85.2274 33.7273L87.3069 33.7051C87.7349 33.7006 88.1594 33.7789 88.5565 33.9355C88.9535 34.092 89.3151 34.3238 89.6208 34.6176C89.9265 34.9114 90.1702 35.2614 90.338 35.6476C90.5058 36.0339 90.5945 36.4488 90.5988 36.8687L90.6041 37.3739C90.6086 37.7939 90.5287 38.2106 90.369 38.6003C90.2093 38.99 89.973 39.3451 89.6736 39.6452C89.3741 39.9453 89.0174 40.1847 88.6237 40.3495C88.23 40.5144 87.8072 40.6016 87.3793 40.6061L85.2997 40.6278C85.253 40.6282 85.2066 40.6194 85.1633 40.602C85.12 40.5845 85.0805 40.5587 85.0472 40.5259C85.0138 40.4932 84.9872 40.4543 84.9689 40.4113C84.9507 40.3683 84.941 40.3221 84.9406 40.2754L84.8755 34.0864ZM86.0305 34.8041L86.0392 39.5369C86.0392 39.5847 86.0582 39.6305 86.092 39.6644C86.1258 39.6982 86.1716 39.7172 86.2195 39.7172L87.064 39.7152C87.379 39.7147 87.6908 39.6522 87.9816 39.5311C88.2725 39.4101 88.5366 39.233 88.759 39.0098C88.9814 38.7867 89.1576 38.5219 89.2777 38.2306C89.3978 37.9394 89.4593 37.6273 89.4588 37.3122L89.4578 37.0172C89.4573 36.7022 89.3948 36.3903 89.2738 36.0994C89.1528 35.8085 88.9757 35.5443 88.7526 35.3219C88.5295 35.0995 88.2648 34.9232 87.9735 34.8031C87.6823 34.683 87.3703 34.6214 87.0553 34.6219L86.2108 34.6239C86.1871 34.6239 86.1637 34.6285 86.1418 34.6376C86.1199 34.6466 86.1 34.6599 86.0833 34.6767C86.0666 34.6934 86.0533 34.7133 86.0442 34.7352C86.0352 34.757 86.0305 34.7805 86.0305 34.8041Z" fill="#F18052"/>
<path d="M92.5545 39.6198C92.5579 39.6289 92.5637 39.6369 92.5712 39.6429C92.5788 39.6488 92.5879 39.6525 92.5974 39.6535C92.7407 39.6696 92.8884 39.6774 93.0404 39.6771C94.1433 39.6746 94.8375 39.675 95.1229 39.6786C95.1884 39.6792 95.2565 39.6868 95.3272 39.7012C95.3428 39.7044 95.3572 39.7118 95.3688 39.7225C95.3805 39.7332 95.3889 39.7469 95.3933 39.762C95.4545 39.9755 95.4328 40.2233 95.4082 40.4653C95.406 40.4871 95.3967 40.5076 95.3818 40.5237C95.367 40.5398 95.3473 40.5506 95.3258 40.5545C95.2654 40.5654 95.2149 40.5708 95.1744 40.5708C94.5237 40.5737 93.3545 40.5744 91.6671 40.5728C91.5067 40.5728 91.4268 40.4945 91.4275 40.338C91.432 38.8148 91.4318 36.6973 91.427 33.9856C91.427 33.938 91.4399 33.8849 91.4656 33.826C91.4695 33.8171 91.4754 33.8092 91.483 33.803C91.4905 33.7968 91.4994 33.7925 91.509 33.7904C91.6205 33.7669 91.6891 33.7552 91.7148 33.7552C93.8888 33.7552 95.0096 33.7552 95.0771 33.7552C95.2046 33.7555 95.3009 33.7661 95.3658 33.787C95.3757 33.7903 95.3846 33.7959 95.3917 33.8035C95.3988 33.8111 95.4038 33.8204 95.4063 33.8304C95.468 34.0786 95.4555 34.3688 95.4314 34.6055C95.4294 34.6251 95.4218 34.6437 95.4095 34.6592C95.3972 34.6746 95.3807 34.6863 95.3619 34.6928C95.2855 34.7194 95.2026 34.7328 95.1132 34.7328C93.9412 34.7347 93.1518 34.736 92.7449 34.7366C92.5948 34.7366 92.5192 34.8033 92.5179 34.9367C92.5114 35.6536 92.5114 36.1281 92.5179 36.3602C92.5188 36.3913 92.5274 36.4386 92.5434 36.5019C92.5459 36.512 92.551 36.5212 92.5582 36.5287C92.5654 36.5361 92.5745 36.5415 92.5844 36.5443C92.6959 36.5758 92.7758 36.5915 92.824 36.5915C94.139 36.5909 94.9181 36.5922 95.1614 36.5954C95.1971 36.5961 95.2511 36.6046 95.3234 36.621C95.3477 36.6266 95.3696 36.6397 95.386 36.6585C95.4024 36.6773 95.4124 36.7008 95.4145 36.7256C95.4296 36.9046 95.4307 37.1009 95.4179 37.3146C95.4127 37.4027 95.3812 37.4481 95.3234 37.451C94.7854 37.4785 93.9761 37.4602 92.7994 37.4607C92.7248 37.4607 92.661 37.4695 92.608 37.4872C92.5819 37.4958 92.5592 37.5123 92.543 37.5344C92.5268 37.5566 92.518 37.5832 92.5179 37.6106C92.5124 38.164 92.5129 38.7712 92.5193 39.4323C92.52 39.4949 92.5317 39.5574 92.5545 39.6198Z" fill="#F18052"/>
<path d="M94.9972 43.8887L85.1924 43.8716C85.0439 43.8713 84.9232 43.9915 84.923 44.1401L84.9226 44.3657C84.9223 44.5142 85.0425 44.6349 85.1911 44.6351L94.9959 44.6522C95.1444 44.6525 95.2651 44.5323 95.2653 44.3837L95.2657 44.1581C95.266 44.0096 95.1458 43.8889 94.9972 43.8887Z" fill="#F18052"/>
</g>
<defs>
<clipPath id="clip0_1816_105147">
<rect width="158" height="50" fill="white" transform="translate(0.5)"/>
</clipPath>
</defs>
</svg>
